<?xml version="1.0" encoding="UTF-8" standalone="no"?>
<!-- Created with Inkscape (http://www.inkscape.org/) -->

<svg
   width="454.25769mm"
   height="454.25769mm"
   viewBox="0 0 454.25769 454.25769"
   version="1.1"
   id="svg5"
   inkscape:version="1.1.2 (b8e25be833, 2022-02-05)"
   sodipodi:docname="logo.svg"
   inkscape:export-filename="D:\Nijssen_Cederic\OneDrive\Documents\RodeKruis\JRK\algemeen\Logo\logo_blankco_svg.png"
   inkscape:export-xdpi="96"
   inkscape:export-ydpi="96"
   xmlns:inkscape="http://www.inkscape.org/namespaces/inkscape"
   xmlns:sodipodi="http://sodipodi.sourceforge.net/DTD/sodipodi-0.dtd"
   xmlns="http://www.w3.org/2000/svg"
   xmlns:svg="http://www.w3.org/2000/svg">
  <sodipodi:namedview
     id="namedview7"
     pagecolor="#4f4f4f"
     bordercolor="#eeeeee"
     borderopacity="1"
     inkscape:pageshadow="0"
     inkscape:pageopacity="0"
     inkscape:pagecheckerboard="false"
     inkscape:document-units="mm"
     showgrid="false"
     lock-margins="true"
     fit-margin-top="25"
     fit-margin-left="25"
     fit-margin-right="25"
     fit-margin-bottom="25"
     inkscape:zoom="0.53480902"
     inkscape:cx="976.98427"
     inkscape:cy="908.73561"
     inkscape:window-width="1920"
     inkscape:window-height="1009"
     inkscape:window-x="-8"
     inkscape:window-y="-8"
     inkscape:window-maximized="1"
     inkscape:current-layer="layer1" />
  <defs
     id="defs2" />
  <g
     inkscape:label="Layer 1"
     inkscape:groupmode="layer"
     id="layer1"
     transform="translate(126.73826,87.216568)">
    <path
       style="fill:#010101;stroke:none;stroke-width:0.352778"
       d="m 192.46558,52.776204 c 0.50129,-3.4103 1.35114,-6.79379 1.7025,-10.23055 0.37183,-3.6382 -0.53481,-7.70149 -2.14277,-10.93611 -0.42333,-0.85196 -1.76354,-4.14056 -3.02719,-2.35056 -1.63477,2.31634 -0.46743,6.40609 -1.00047,9.05333 -1.78294,8.85261 -2.48497,17.74437 -5.07189,26.45833 -0.84243,2.83669 -1.81575,5.62293 -2.63631,8.46667 -0.25047,0.86748 -0.48366,2.42253 -1.60549,2.59962 -1.29328,0.20391 -2.20521,-2.09268 -2.73226,-2.9524 -2.1015,-3.42759 -4.32153,-6.75499 -6.86153,-9.87777 -9.19903,-11.31041 -20.88197,-19.43488 -34.12736,-25.29099 -11.42189,-5.05002 -25.273,-7.63447 -37.74722,-6.78039 -4.01778,0.27516 -8.047565,0.86042 -11.994443,1.66229 -1.955447,0.39722 -4.348338,1.49401 -6.349999,1.23225 -3.876322,-0.50659 -8.216546,-3.71969 -11.994443,-5.01474 -8.960202,-3.07199 -19.451812,-4.79566 -28.927775,-3.8481 -8.689974,0.8689 -18.032587,3.96769 -25.399997,8.65153 -1.884891,1.19838 -7.3963378,6.94337 -9.4921898,6.05648 -2.91288597,-1.23225 -4.446058,-8.81979 -5.4331302,-11.59333 -4.6157439,-12.96917 -5.7982551,-25.9431703 -3.3894885,-39.51111 0.5926666,-3.33893 2.0969109,-6.81708 3.5351858,-9.87778 0.499886,-1.06352 1.69897753,-2.91515 0.9796637,-4.11464 -0.9606137,-1.60206 -3.6812357,0.79885 -4.5444828,1.47481 -3.7115743,2.90643 -6.9419602,6.35254 -10.2358452,9.69405 -3.533917,3.58535 -6.921324,7.6606697 -6.683058,13.0541197 0.0816,1.84749005 1.343378,3.47433 1.25349,5.29166 -0.17205,3.47994 -1.702294,7.0001703 -1.941901,10.5833403 -0.250437,3.74508 0.866246,7.55085 1.02676,11.28888 -2.606675,-2.29835 -3.978592,-9.31686 -5.018651,-12.7 -0.479249,-1.55892 -0.469653,-3.6240803 -1.782375,-4.7808403 -2.097052,-1.84785 -4.648517,0.85266 -5.530673,2.6641803 -2.319937,4.76391 -3.877274,9.47843 -3.511726,14.81666 0.975043,14.23847 9.882046,25.2984 18.431014,35.98333 2.38245,2.9778 4.975261,5.79826 7.302888,8.81945 0.609247,0.79057 1.966031,2.77706 0.534811,3.55564 -0.963788,0.52388 -2.066924,-0.84772 -2.632427,-1.44074 -2.159176,-2.26307 -4.063118,-4.90361 -5.933969,-7.40657 -5.544008,-7.41751 -10.401052,-15.12323 -15.371973,-22.93055 -1.787207,-2.80706 -3.514513,-7.83626 -6.60915,-9.41282 -6.393715,-3.2572 -5.755886,8.4455 -6.160801,11.52948 -0.172928,1.31692 -0.595467,2.52871 -0.493507,3.88056 0.223777,2.96686 3.193665,2.91394 4.123904,5.29696 0.768809,1.96991 -1.006475,4.41713 -0.240912,6.69748 2.135117,6.35988 7.84232,12.43542 12.310215,17.28611 -2.96478,-2.08844 -6.192026,-5.13644 -8.668384,-7.79392 -1.626341,-1.74554 -3.107443,-4.27037 -5.795503,-4.37056 -3.912238,-0.1464 -4.128184,5.95242 -3.778479,8.6367 1.043453,8.00982 6.823797,15.73954 12.629496,21.06048 6.006217,5.505096 13.182104,9.559926 20.076757,13.834186 6.567664,4.07211 12.857338,8.37318 19.755554,11.93376 3.0028442,1.54975 6.6117602,4.68948 9.876365,5.39715 2.262364,0.49036 3.355975,-3.19899 5.54743,-0.9906 1.510594,1.52188 3.233561,9.70033 1.997075,11.52137 -1.582914,2.33115 -5.341055,2.12196 -5.391502,5.68254 -0.06138,4.30636 6.973357,7.43021 9.842851,9.87778 -4.098572,-0.51753 -9.75501,1.99178 -5.859638,6.68761 2.500136,3.01343 6.801202,4.17371 10.092971,6.01345 1.012119,0.56585 4.478513,1.61643 4.716286,2.84833 0.339725,1.76071 -5.849408,0.81844 -6.35388,3.16335 -0.422628,1.96462 1.234369,3.82905 2.28988,5.27615 4.6482,6.37434 8.948913,4.98828 15.57549,6.70278 -0.765528,1.04422 -2.468033,2.15194 -2.530122,3.53307 -0.1778,3.96063 8.203141,5.55766 10.996788,6.3447 -4.241447,5.14245 -13.211879,4.21781 -18.649948,7.04498 -3.233561,1.68098 1.117953,4.06964 3.127727,3.77013 1.770239,-0.26423 3.10515,-1.39982 4.938889,-1.29011 -1.074914,2.63913 -0.779639,3.81 0.43815,6.35 0.269169,0.56092 1.115483,1.96462 0.370416,2.49732 -0.832908,0.59513 -4.298244,-2.46804 -5.394677,-2.83598 -4.459463,-1.49684 -9.298163,-0.49707 -13.758332,0.48824 -7.921624,1.75013 -14.9605978,6.01768 -21.872219,10.0771 -4.1243246,2.42217 -8.7051435,4.75227 -12.346868,7.87118 -2.017889,1.72825 -3.403952,4.01461 -5.323768,5.82612 -5.671927,5.3527 -11.318275,10.81934 -13.400475,18.76213 -1.813772,6.91868 5.024366,8.08567 8.520005,12.70529 1.713618,2.26449 3.085218,5.9817 6.323331,6.30485 5.7996649,0.57891 13.6764864,-6.90915 18.1109022,0.75812 1.158522,2.00307 -1.9759078,2.83598 -3.29423817,3.37502 -3.31505243,1.35643 -9.64353213,4.72193 -9.44809313,8.9595 0.22613,4.90784 0.351719,12.96635 5.567538,15.07843 3.65759963,1.48131 9.6474123,-0.901 12.1168563,2.56681 4.2622608,5.98593 -8.43491497,2.82116 -5.152318,7.32684 2.843035,3.90208 9.7571258,2.34491 11.8974288,-1.34126 3.740855,-6.44208 -4.332111,-12.42166 -10.0425238,-12.68095 -1.836914,-0.0833 -6.1647908,0.77929 -6.7130074,-1.79317 -0.9270999,-4.3494 9.0981374,-5.04578 10.9481044,-7.7784 1.3338518,-1.96991 1.6905108,-4.76426 2.3181018,-7.02274 0.550333,-1.98085 1.016,-3.96205 1.303514,-5.99723 1.8669,-13.21576 -15.5497368,-7.59565 -23.026155,-9.41352 -4.392083,-1.06821 -2.095853,-5.02567 -0.337609,-7.51981 7.7734578,-11.02536 18.7825922,-18.34515 31.029271,-23.63611 3.257197,-1.40723 8.013347,-4.2291 11.641313,-4.11586 2.810227,0.0878 4.742391,4.74839 6.456185,6.54826 2.144536,2.25214 4.60375,1.83515 7.302499,0.97402 5.911497,-1.88665 15.132754,-4.97487 18.650301,-10.46339 2.803878,-4.37515 -2.942166,-8.96972 1.810808,-11.52595 2.02177,-1.08726 4.244975,-1.23508 6.35,-2.04294 11.501612,-4.41431 24.221011,-7.35541 36.688881,-6.50663 6.20289,0.42263 12.28231,2.06516 18.34444,3.3154 7.21995,1.48873 15.57867,2.00237 21.87187,6.21524 3.89608,2.60809 0.83432,5.05108 2.58516,8.42963 2.98591,5.76157 8.46419,10.60732 14.34852,13.28102 4.14726,1.88489 8.04651,0.75424 11.28889,-2.09303 1.65347,-1.45203 3.17006,-4.19735 5.64445,-4.052 3.93241,0.23177 8.35695,3.46639 11.64166,5.42431 9.66752,5.76298 18.04,12.37791 25.39965,20.95359 2.58974,3.01731 7.14057,7.95619 7.85071,11.99444 0.50095,2.84798 -3.76378,4.1148 -5.7337,4.98828 -4.65807,2.06516 -9.66187,2.19675 -14.81666,1.6136 -2.39501,-0.27128 -6.58248,-0.65193 -7.99641,1.93993 -0.87807,1.60937 0.18344,3.99485 0.70555,5.5693 0.58702,1.76883 1.19662,6.34471 3.13302,7.06155 1.26753,0.4692 2.86279,-0.24235 4.15784,-0.32702 3.61103,-0.23566 10.04923,1.2894 10.0337,5.96371 -0.006,1.95121 -2.08456,2.52977 -3.6837,2.36396 -2.99791,-0.3108 -5.73299,-1.70815 -8.81944,-1.18886 -4.74169,0.79728 -9.01206,7.2965 -5.96583,11.82688 1.62666,2.41935 4.14867,-3.80542 6.3186,-4.63445 3.00743,-1.14864 4.87751,0.4438 7.76111,0.40676 3.61562,-0.0462 7.85178,-2.50543 10.55017,-4.77944 2.927,-2.46627 3.25544,-9.03146 1.98614,-12.45975 -0.64241,-1.73426 -2.56081,-4.7551 -1.97873,-6.65092 0.66111,-2.15336 5.7083,-1.32645 7.43409,-2.33857 3.302,-1.9364 5.53191,-5.04155 7.91069,-7.94385 3.84704,-4.693 7.67291,-7.2076 5.33999,-13.75833 -5.63492,-15.82103 -20.31858,-27.96364 -34.41735,-36.40667 -4.66583,-2.794 -9.61778,-5.90338 -14.81666,-7.5692 -4.72828,-1.51482 -11.27513,-2.7118 -16.22742,-1.80481 -1.46015,0.26776 -3.88797,4.48487 -5.05884,3.24203 -1.26188,-1.33985 2.42112,-3.89996 1.99567,-5.79191 -0.63289,-2.81375 -3.36586,-5.48498 -5.4035,-7.34836 -0.63994,-0.58525 -2.36608,-1.65276 -1.79211,-2.7305 0.65828,-1.23542 4.44923,-1.19909 5.67231,-1.13629 5.13151,0.26352 9.05863,-0.82374 13.75833,-2.89701 1.7078,-0.75354 4.57659,-2.2098 4.06118,-4.54802 -0.39829,-1.80587 -2.94252,-1.99989 -4.41395,-2.24049 -4.20123,-0.68686 -9.5123,-1.14864 -13.75834,-0.95779 -1.13841,0.0515 -3.51754,0.19932 -4.20299,1.29223 -0.83608,1.3335 2.05211,3.0801 2.43911,4.33846 -4.47993,-0.83185 -7.15575,0.44379 -11.28889,1.33773 -0.84032,0.18203 -2.44969,-0.21837 -2.44969,-1.32786 0,-1.7593 3.53025,-1.84044 3.41736,-4.2291 -0.0692,-1.46261 -4.47957,-2.68781 -2.63031,-3.87738 1.9625,-1.26223 4.45946,-0.20214 6.60153,-0.43144 4.5032,-0.4819 9.07626,-4.24074 10.09156,-8.75806 0.3817,-1.69722 0.29633,-3.77437 -1.6316,-4.32929 -0.79446,-0.2286 -3.50132,0.28575 -3.50132,-1.00436 0,-1.39171 3.22121,-2.52977 4.21358,-3.169 3.12173,-2.01084 7.96325,-3.17395 10.43552,-6.02756 2.11666,-2.44334 1.17933,-5.39962 -1.61643,-6.61529 -0.89429,-0.38876 -1.87078,-0.54152 -2.82187,-0.72673 1.88877,-4.01637 7.97278,-4.08622 8.3947,-9.17222 0.25929,-3.13125 -3.78248,-3.45898 -4.02061,-6.35 -0.34396,-4.17512 1.86619,-8.78946 1.97062,-13.05278 0.13052,-5.31812 0.34501,-10.57663 -0.0261,-15.87499 -0.20743,-2.95734 -1.29928,-5.82472 -1.25871,-8.819446 0.0751,-5.53896 4.74416,-9.795227 3.59445,-15.875 -0.91934,-4.8641 -4.25167,-3.81388 -7.24323,-1.41111 -0.37959,-4.52014 5.99546,-3.81423 8.42998,-5.79614 5.05883,-4.11797 8.32732,-9.9755 12.34828,-15.00364 1.74237,-2.17875 4.2739,-3.42406 6.02756,-5.65855 8.06661,-10.27783 15.60018,-23.83049 16.87865,-37.04166 0.46319,-4.78543 -1.61608,-8.5255803 -1.9177,-13.0527803 -0.14323,-2.15244 1.22026,-4.16665995 1.26682,-6.35 0.17604,-8.29568 -8.30756,-15.3596597 -14.10582,-20.0394697 -1.11901,-0.90322 -6.14785,-6.1667 -7.74629,-4.36018 -1.00118,1.13195 0.74754,4.51184 1.16523,5.70243 1.79846,5.12692 4.02942,10.7288197 4.43265,16.2277697 1.12077,15.2893903 -2.99156,30.0612503 -9.56945,43.7444403 -1.94733,4.0506 -3.61068,10.36673 -7.33213,13.05278 M 233.04032,7.5681237 c -1.69792,0.47375 -2.22144,2.4754103 -2.71004,3.9330903 -1.39241,4.15713 -3.07552,8.43385 -4.03931,12.69999 -0.86677,3.83928 -2.92276,7.33954 -4.44464,10.93611 -4.2538,10.05205 -9.62731,18.58786 -16.38759,27.16389 -2.63666,3.34469 -4.85281,6.96666 -7.63658,10.23056 -0.75318,0.883 -2.30187,2.77953 -1.39876,4.01919 1.40688,1.93111 5.60352,-2.55058 6.62552,-3.40078 4.95406,-4.12079 8.74077,-9.48513 13.28984,-14.13862 0.9712,-0.99342 2.36643,-5.23699 4.16454,-4.73393 0.9772,0.27341 0.29739,1.83727 0.0639,2.38443 -0.96662,2.26624 -2.63208,3.95922 -3.95782,5.99193 -4.36456,6.69113 -11.0183,11.18094 -16.3456,16.93862 -0.64982,0.70203 -5.1248,6.512633 -2.1329,6.13975 1.55999,-0.19438 3.06847,-1.92476 4.21252,-2.88326 3.25156,-2.72415 6.55638,-5.51673 9.51971,-8.55345 12.25585,-12.55853 23.71831,-26.14153 28.26843,-43.39166 1.59879,-6.06143 0.74825,-13.09158 -2.03694,-18.69722 -0.82691,-1.6637 -2.70792,-5.2930803 -5.05424,-4.6386403 M 125.08503,181.18731 c 7.48876,-2.5333 14.73588,-6.5599 20.81389,-11.6138 7.3607,-6.11999 13.76503,-13.66449 18.05904,-22.25287 15.10488,-30.20977 5.08847,-68.330926 -22.64516,-87.479706 -13.26232,-9.15741 -28.78525,-13.06901 -44.80277,-11.97222 -4.146898,0.28434 -8.353419,1.0414 -12.347216,2.18793 -2.25813,0.64805 -5.021791,2.09197 -7.408333,1.51306 -2.482496,-0.60184 -4.785077,-2.82187 -7.055554,-3.99415 -4.720166,-2.43628 -9.613194,-4.43829 -14.816665,-5.58588 -21.86199,-4.82141 -48.9736638,7.0679 -50.0806808,32.30597 -0.529166,12.067474 3.056467,23.63612 12.6862398,31.532686 3.303411,2.70898 7.033683,4.89091 10.93611,6.616 1.855611,0.82056 4.515203,1.24036 5.138561,3.48086 0.811389,2.91429 0.560916,6.49252 1.009297,9.52323 0.858661,5.80108 2.326216,11.42295 4.327877,16.93333 7.682088,21.14586 25.151995,32.71838 45.263148,40.21667 v 1.05833 c -4.252383,1.58539 -11.320285,4.90291 -15.874998,4.4383 -4.503208,-0.45932 -8.044744,-4.51026 -11.641666,-6.74264 -13.554779,-8.4134 -23.434672,-21.5205 -28.909077,-36.50121 -1.717675,-4.70041 -2.990144,-9.52994 -3.812116,-14.46389 -0.405342,-2.43346 0.01588,-5.56366 -1.194858,-7.7597 C 20.697041,118.93932 14.31,117.27703 11.137822,114.45093 2.6651592,106.90254 -3.7980812,97.033584 -5.3407783,85.584534 -9.3370441,55.933564 13.93288,28.882564 44.29893,30.212184 c 7.428793,0.32526 14.89357,1.59526 21.872219,4.24216 3.773664,1.43122 8.365419,4.98439 12.347221,5.32941 3.856919,0.33373 8.816974,-1.80411 12.699999,-2.37913 7.476411,-1.10631 15.100651,-1.15641 22.577771,-0.0547 36.24474,5.33894 65.54222,36.24332 68.05471,72.929036 1.62983,23.7998 -7.06614,47.78234 -24.66305,64.17415 -3.17923,2.96157 -7.12082,7.02416 -11.28888,8.509 -3.701,1.31833 -9.20786,0.99801 -13.05278,0.49142 -2.27401,-0.29915 -6.91868,0.33373 -7.76111,-2.26624 M 246.08815,32.578624 c -2.29482,0.6357 -3.39232,3.21521 -4.58753,5.02814 -3.07516,4.66443 -5.84976,9.45938 -8.93586,14.11111 -6.61987,9.97902 -13.22599,20.52567 -21.46723,29.2488 -5.37069,5.684311 -12.9868,9.44563 -18.14018,15.30209 -2.22321,2.52695 -1.9043,8.002406 -1.73673,11.187996 0.0667,1.26717 0.67698,3.45651 2.31705,3.33516 2.5407,-0.18839 1.98614,-3.62338 3.59445,-4.83729 1.24883,-0.94227 3.10938,-0.60572 4.50568,-1.33774 2.71674,-1.42451 5.04578,-3.83751 7.40833,-5.762616 2.74391,-2.23626 5.99828,-3.67983 8.81944,-5.82577 5.30966,-4.038956 9.69998,-8.84943 14.46424,-13.42743 6.16515,-5.9242 11.86251,-11.07475 15.4118,-19.06376 1.1998,-2.70122 -1.24742,-4.60975 -0.50553,-6.66468 0.60608,-1.67816 3.11397,-1.83691 3.89538,-3.57999 1.67463,-3.73556 0.381,-10.35367 -0.82833,-14.09699 -0.57291,-1.77306 -1.97485,-4.23792 -4.21498,-3.61703 m -250.8253256,18.08091 -0.3527778,0.35278 c -1.6841608,-0.87489 -2.258483,-2.59962 -3.0889217,-4.23333 -1.9035889,-3.74474 -4.8954969,-9.41564 -3.9666329,-13.75833 2.3530279,1.15746 2.6991029,3.6583 3.3079969,5.99722 1.0484553,4.02555 3.2621356,7.59177 4.1003355,11.64166 M 94.04059,88.053982 c -2.021063,-0.598311 -2.611613,-2.640898 -3.796241,-4.233338 -2.040819,-2.7439 -6.801202,-7.01957 -10.665882,-6.2237 -1.959327,0.40322 -2.192866,2.46309 -2.425347,4.10704 -0.602191,4.260495 -1.77553,8.47019 -3.665008,12.34722 -4.990041,10.239366 -14.797615,18.185686 -26.366961,19.342446 -9.65976,0.96591 -19.747439,-1.22131 -27.516663,-7.23512 C 4.6752872,94.602594 1.648807,72.193094 12.815633,57.009534 c 7.447491,-10.12613 18.243901,-13.46658 30.072186,-15.01986 7.275335,-0.95532 16.063028,1.63477 22.577775,4.71205 7.332132,3.46322 14.116048,8.24618 18.899009,14.89392 5.33153,7.41081 9.280167,17.24061 9.675987,26.458338 M -18.378174,53.806664 c 1.01667,-0.16545 2.070947,1.15641 2.673139,1.79353 1.898649,2.00977 4.671835,4.68665 5.9668819,7.11376 0.492125,0.92216 0.578909,2.85856 -0.7228409,3.20252 -1.04387,0.27622 -1.864431,-0.81316 -2.430639,-1.50531 -1.801636,-2.20345 -3.931954,-4.53672 -5.280766,-7.04885 -0.336338,-0.62653 -1.609195,-3.32705 -0.205775,-3.55565 m 54.262649,1.80164 c -1.335969,0.79093 -1.109839,2.54388 -1.110544,3.87068 -0.0011,2.57704 1.027641,8.04686 -0.565503,10.17834 -2.429933,3.25014 -10.116255,-0.0533 -13.524793,1.32327 -2.058811,0.8315 -1.431925,4.02167 -1.431925,5.7845 0,1.92158 -0.643819,5.30366 0.362656,7.00334 0.790927,1.33597 2.54388,1.10984 3.870677,1.11055 2.577041,10e-4 8.04686,-1.02764 10.178343,0.5655 3.832225,2.865262 -1.556808,11.45469 1.928283,14.39122 1.535995,1.293986 5.399264,0.565496 7.29615,0.565496 1.344436,0 3.32881,0.35101 4.533899,-0.36266 1.335969,-0.790916 1.109839,-2.543876 1.110544,-3.870666 0.0011,-2.57705 -1.027641,-8.046864 0.565503,-10.178348 2.429933,-3.250142 10.116255,0.05327 13.524793,-1.323272 2.058811,-0.83149 1.431925,-4.02166 1.431925,-5.78449 0,-1.92159 0.643819,-5.30367 -0.362656,-7.00335 -0.790927,-1.33597 -2.54388,-1.10984 -3.870677,-1.11054 -2.604558,-0.001 -7.991827,1.01635 -10.150121,-0.61454 -3.840339,-2.90231 1.526822,-11.40742 -1.956505,-14.34218 -1.535995,-1.29399 -5.399264,-0.56551 -7.29615,-0.56551 -1.344436,0 -3.32881,-0.35101 -4.533899,0.36266 M 209.04613,111.33731 c -3.03812,4.11586 -10.3572,7.1247 -14.81525,9.51971 -0.84773,0.45508 -3.88691,3.16336 -1.65277,3.91019 1.32045,0.44168 3.06176,-1.03152 4.1208,-1.6376 3.14678,-1.79987 6.30908,-3.68723 9.525,-5.35128 14.98635,-7.75406 31.29385,-16.63665 41.87965,-30.077126 3.25967,-4.13914 5.51145,-9.54828 6.0378,-14.81667 0.25788,-2.57845 -0.23002,-5.5058 -2.77601,-6.81143 -4.4771,-2.29588 -9.23184,6.76804 -11.98033,9.17998 -12.07947,10.599917 -22.89175,21.55155 -36.33611,30.566426 -3.24344,2.17453 -6.38457,4.92831 -9.13518,7.69444 -0.91052,0.91581 -2.33856,2.79047 -0.93698,3.94511 1.18287,0.97438 3.29177,-0.48048 4.42771,-0.98001 3.33869,-1.46862 7.91246,-5.83565 11.64167,-5.14174 M -12.498286,88.053982 c -2.052461,0.192616 -3.133724,-1.507067 -4.58611,-2.748138 -3.444382,-2.94358 -7.991475,-6.13763 -9.525,-10.65742 l 4.938888,3.87915 9.172222,9.526408 m -20.108331,-9.524998 c 2.380332,-0.22507 4.399526,3.03318 5.997503,4.59105 4.193152,4.08834 9.433102,8.57179 14.462195,11.55947 1.037872,0.61665 5.337527,3.70699 4.5254326,5.15479 -1.3620747,2.428866 -6.0857686,-2.78025 -6.9934656,-3.4798 -3.441383,-2.65148 -5.899961,-5.75981 -9.177408,-8.537226 -3.250811,-2.754844 -7.023381,-5.216524 -8.814257,-9.288284 M 4.0822682,133.56231 c 2.724149,3.5e-4 9.3965868,3.27096 10.8062868,-0.3683 1.458383,-3.76414 -7.1673848,-6.72818 -9.3951768,-8.18797 -4.64008497,-3.04059 -10.0375844,-5.14915 -14.8166643,-8.01688 -6.5729539,-3.94405 -12.6416149,-9.17116 -19.7555539,-12.04983 -3.525061,-1.42628 -11.425977,-5.107866 -15.030342,-2.71251 -1.419225,0.94333 -1.213062,3.0473 -1.196058,4.52438 0.04664,4.05412 0.970244,9.50277 4.58611,11.9066 2.145842,1.42664 4.966123,0.6664 7.016079,2.11208 1.885492,1.32997 1.674848,4.04848 3.602884,5.38621 4.193681,2.91007 9.674259,4.59388 14.426882,6.36553 4.852457,1.80904 9.4572651,3.9571 14.4638868,5.32765 3.2194496,0.88123 7.9875934,3.17217 11.2888872,2.69169 1.278466,-0.18591 3.690408,-1.36454 3.262488,-3.01907 -0.674158,-2.60774 -7.5092258,-2.17029 -9.2597088,-3.95958 M 211.1628,128.9762 c -3.52249,2.84127 -8.46596,3.37009 -12.34687,5.60211 -0.91687,0.5274 -3.62726,2.36961 -1.98932,3.56023 2.3742,1.72615 9.28758,-1.50671 11.86674,-2.15159 4.203,-1.05057 7.6648,-3.07904 11.64167,-4.64855 3.69111,-1.45662 8.44409,-2.72168 11.62755,-5.10999 1.94839,-1.46191 2.10538,-4.10139 3.94159,-5.51991 2.22885,-1.72226 5.32518,-0.41522 7.54909,-2.50331 2.76048,-2.59186 6.36411,-12.09393 3.43111,-15.53422 -2.03976,-2.39254 -9.64,0.43427 -12.08545,1.25942 -6.34013,2.13924 -10.66553,6.04767 -16.22778,9.5003 -5.39997,3.35245 -11.35768,5.93302 -16.58055,9.56205 -1.8221,1.26611 -10.82323,7.47465 -5.28497,9.54369 4.57976,1.71097 9.90777,-3.83222 14.45719,-3.56023 M 8.3156002,120.50953 c -3.553882,-1.31092 -8.94679567,-4.064 -11.2888871,-7.05555 2.81939973,-0.3937 11.3375711,3.93312 11.2888871,7.05555 m 150.6360898,-7.40833 -5.99722,26.81111 h -6.35 l 0.35278,-1.76389 c -1.33033,0.87736 -2.6797,1.72156 -4.23333,2.14242 -4.70535,1.27388 -8.33967,-2.01718 -8.34673,-6.72853 -0.009,-5.63633 3.29283,-12.38885 9.40506,-13.29937 2.50331,-0.37289 4.73286,0.0575 7.05555,0.95215 l 1.76389,-8.11389 h 6.35 m -91.722207,1.05833 c -0.605367,4.4951 -2.041172,8.97396 -3.025422,13.40556 -0.734836,3.30905 -1.33597,7.23194 -3.793419,9.77159 -3.473803,3.59022 -10.482085,3.66395 -15.053379,2.57563 l 1.058333,-5.29167 c 2.655358,0.12136 5.286374,1.4792 7.745941,-0.248 3.818113,-2.68146 4.041422,-10.72303 5.085644,-14.92144 0.328436,-1.32009 0.395816,-4.04178 1.536347,-4.92901 1.321505,-1.02835 4.830585,-0.36266 6.445955,-0.36266 m 4.938888,17.28611 c 1.212497,7.63306 9.005357,3.25367 13.405554,2.46945 -0.115711,1.41711 -0.252236,3.94441 -1.318683,4.99427 -4.000147,3.937 -15.068196,1.84856 -17.434982,-2.87761 -5.088113,-10.15894 8.807097,-19.99332 17.681221,-14.85018 2.371724,1.37478 4.753327,7.81192 1.93181,9.90142 -1.375833,1.01882 -4.856691,0.36265 -6.50381,0.36265 h -7.76111 m 55.738879,-10.23055 c 1.20403,-1.37795 4.61081,-0.70556 6.35,-0.70556 -0.95603,7.10001 -2.43099,21.35964 -9.17222,25.21232 -4.50533,2.57458 -9.98432,1.50707 -14.81667,0.89324 l 0.70556,-4.93889 c 5.62045,0.45896 10.02841,2.81622 13.05278,-3.52778 -3.27061,1.34162 -7.4094,2.60527 -10.5463,0.12771 -5.71006,-4.50956 -0.26176,-15.12994 4.90185,-17.44733 3.05365,-1.37055 6.50346,-0.59655 9.525,0.38629 m -29.98611,-0.70556 c -0.28716,2.1329 -0.88653,4.25133 -1.36913,6.35 -0.4572,1.98861 -1.70179,5.01439 -1.07809,7.03616 0.77294,2.50436 4.82212,1.64076 5.99687,-0.06 2.33327,-3.37643 0.65934,-9.81816 3.45546,-12.76067 1.14159,-1.20121 4.51697,-0.56551 6.04767,-0.56551 l -2.9718,14.11111 -1.52188,4.92901 -6.08965,0.36266 0.35277,-1.76389 c -3.22544,1.95439 -10.349786,4.6863 -12.06358,-0.70697 -0.947561,-2.98203 0.499533,-6.6114 1.169458,-9.52358 0.392642,-1.70674 0.560211,-5.91715 1.982258,-7.04568 1.248124,-0.9906 4.558234,-0.36266 6.089644,-0.36266 m -24.694436,7.05556 h 3.527777 c 1.058686,0 3.139722,0.38311 4.006497,-0.36266 1.068564,-0.91969 -0.293511,-2.52765 -1.203677,-2.90336 -2.651831,-1.09432 -5.60705,0.69003 -6.330597,3.26602 m 53.622216,-2.46945 c -4.68983,-1.31727 -11.41095,2.84939 -8.35449,8.42822 1.08691,1.98402 4.90714,1.87148 6.24205,0.16228 0.71367,-0.91405 0.83327,-2.54812 1.09503,-3.65161 0.38594,-1.62913 0.7941,-3.28048 1.01741,-4.93889 m 19.75555,-0.50835 c -5.46664,0.64805 -8.45008,12.11439 -1.41111,11.01619 3.67735,-0.57361 6.86964,-11.66354 1.41111,-11.01619 m 83.25555,11.09169 c -4.29225,3.55388 -9.45057,6.0392 -14.46389,8.38905 -2.97533,1.39489 -6.10799,2.54635 -9.17222,3.74121 -3.19158,1.2446 -6.4068,2.29553 -9.50948,3.78178 -1.03293,0.49495 -2.22461,1.75683 -1.15923,2.8762 2.83175,2.97532 6.98148,-2.42712 9.2576,-3.30377 9.37189,-3.61033 19.35444,-3.10444 27.16388,-10.55934 2.44581,-2.33469 7.8479,-6.55144 6.26428,-10.56922 -1.30422,-3.30871 -4.20899,-3.35774 -6.96983,-2.02601 -7.25347,3.50026 -14.23423,7.22771 -21.87222,9.94869 -4.09681,1.45944 -10.72833,2.12831 -14.04444,4.97381 -2.04364,1.75366 -1.89865,4.80307 0.99307,5.33153 2.98097,0.54469 6.6795,-0.58949 9.52359,-1.44991 2.69593,-0.81563 5.51674,-1.92688 8.11389,-3.02543 4.84046,-2.04717 10.42987,-8.11247 15.875,-8.10859 m -254.705527,1.05833 c 2.141996,0.19897 4.132332,1.83974 5.997221,2.87126 3.199343,1.76918 6.628695,3.33692 9.8777779,5.00627 3.8664436,1.98649 10.0802708,4.26261 14.4638863,4.10139 2.801408,-0.10301 5.6740768,-2.53612 3.076575,-5.17913 -3.500613,-3.56235 -11.1555374,-4.29189 -15.7765729,-5.56083 -6.2438133,-1.71486 -12.5752923,-5.14527 -18.3444433,-8.02923 -2.846528,-1.4231 -7.480299,-4.74627 -9.827153,-0.60254 -2.154696,3.80435 3.459656,8.9923 5.946598,11.21198 8.069579,7.20267 18.146182,7.81474 27.8694421,10.9721 1.98719703,0.64558 6.9296131,6.16373 9.2738211,3.34045 0.906991,-1.0922 -0.700617,-2.22426 -1.518003,-2.67159 -2.684638,-1.46861 -5.63385997,-2.65571 -8.4613736,-3.82234 -2.672997,-1.10279 -5.4116105,-1.9484 -8.1138876,-2.96828 -5.49663,-2.07468 -10.106695,-4.6683 -14.463888,-8.66951 m 215.547197,24.34167 c 6.61599,1.57515 13.51809,-2.33257 20.10833,-2.46945 -3.48051,3.58987 -10.43587,4.61292 -15.16944,5.63915 -2.19463,0.4759 -4.80272,0.40252 -6.58143,1.99426 -4.38502,3.92394 3.19264,5.33541 5.87587,5.00133 3.58105,-0.44591 5.62681,-3.57929 8.81944,-4.7438 2.17947,-0.79481 4.98616,0.24906 7.40834,-0.46073 4.61574,-1.35291 10.16882,-6.77969 13.37274,-10.25278 1.22167,-1.32468 2.55341,-3.02648 2.44863,-4.93713 -0.2032,-3.71369 -4.34904,-3.13302 -6.64915,-2.02706 -4.65808,2.24014 -9.69927,2.19816 -14.46389,4.04142 -2.27542,0.88018 -3.65795,3.03107 -5.99722,3.81635 -2.70686,0.90876 -8.19467,1.27177 -9.17222,4.39844 M 4.7878232,170.2512 v 0.35278 c -3.2571967,-0.48825 -5.74992417,-3.3207 -9.1722211,-2.31176 -9.9186991,2.92347 -1.6361831,11.43318 4.23333293,13.09688 6.28685217,1.78188 12.39872597,1.2379 18.69721997,2.06445 1.329972,0.17463 6.03638,0.77047 6.377868,-1.28517 0.262114,-1.58044 -2.675113,-1.33879 -3.555646,-1.49754 -4.072467,-0.73483 -7.871883,-1.43192 -11.9944438,-1.95298 2.6126718,-2.6677 8.1780938,0.37254 10.7163298,-2.06128 1.456619,-1.39664 -1.430161,-1.90182 -2.249664,-2.02106 -4.539897,-0.6611 -8.3262598,-2.06657 -12.6999978,-3.32599 v -0.35278 c 2.979208,0.12806 6.6036458,0.74154 9.5094758,-0.23036 2.658181,-0.889 1.668992,-3.85868 -0.342547,-4.85951 -2.126897,-1.05834 -4.4587578,-0.63077 -6.6974848,-1.02341 -3.316111,-0.58103 -6.65621027,-2.32763 -9.8777766,-3.33446 -2.7869442,-0.87101 -5.0510717,-0.85266 -7.0555547,-3.25226 5.1593743,-0.16333 10.07744883,2.25284 15.1694423,2.7619 1.773061,0.17745 4.6277378,0.65017 5.2916658,-1.35078 -3.4395828,-0.89218 -7.5060518,-1.85667 -10.56957317,-3.7144 -1.63618313,-0.99237 -2.44545533,-2.9076 -4.25238283,-3.64208 -3.026833,-1.23014 -6.1863101,0.0448 -9.166929,-1.00401 -2.710744,-0.95391 -6.875886,-4.50638 -9.862256,-2.91853 -4.45343,2.3675 0.957757,7.92057 3.164664,9.7342 2.921812,2.40101 5.738742,5.38551 9.167036,7.05732 2.6038521,1.26965 5.6698434,0.4946 8.4666653,1.29646 2.50331093,0.7179 4.3289357,2.7499 6.7027769,3.77437 m 86.0777678,-19.05 -2.469444,11.64167 -3.175,-0.70556 c -1.272822,1.19239 -3.797299,1.5113 -4.677127,-0.42827 -2.061986,-4.5466 2.692752,-8.19221 6.793794,-6.98006 l 0.705555,-3.52778 h 2.822222 m 46.919439,0 c -0.16228,2.08386 -1.31869,2.10996 -3.175,2.11667 0.23601,-2.05176 1.31656,-2.10997 3.175,-2.11667 m -68.086103,11.64167 -3.285067,-0.36266 -3.770488,-3.5179 c -0.120297,2.75837 -0.695678,3.87068 -3.527777,3.88056 0.20708,-2.60174 0.738011,-8.72385 2.46521,-10.72339 1.333853,-1.5434 7.077427,-0.68862 8.120944,0.92604 1.739547,2.69205 -1.507067,3.56306 -1.73108,5.63774 -0.13582,1.25942 1.249538,3.00955 1.728258,4.15961 m 39.863883,-11.28889 -0.70556,4.58611 c 2.67194,-2.67194 4.20829,-4.58576 8.11389,-4.58611 l -4.84999,5.67584 2.73332,5.61305 c -3.39054,-3.6e-4 -4.33916,-1.11478 -5.64444,-4.23334 -2.18828,2.08139 -1.34973,4.22064 -4.93889,4.23334 l 2.46945,-11.28889 h 2.82222 m -46.213883,4.93889 c 5.541786,1.3843 1.730728,-5.88998 0,0 m 12.347221,-2.33539 c 6.325658,-0.38841 4.665133,8.62718 -0.705555,9.00394 -6.824486,0.47872 -5.133622,-8.64517 0.705555,-9.00394 m 23.636102,5.15761 h -6.34999 c 1.46191,2.50437 3.64066,1.40476 5.99722,1.05833 -1.5113,4.76532 -9.80193,3.1944 -8.576733,-2.11667 1.297516,-5.62292 10.144473,-5.50968 8.929503,1.05834 m 20.46111,-3.88056 3.52778,-1.05833 c -0.43709,3.15066 -1.90888,1.73002 -3.68159,3.38772 -2.37172,2.21862 -0.0677,5.06342 -4.4323,5.07895 l 1.76389,-8.46667 c 1.2386,0 2.52095,-0.34819 2.82222,1.05833 m 7.05556,-1.05833 c -0.25612,1.32009 -1.75507,5.02144 -0.49283,6.02156 2.24966,1.78188 3.10197,-4.92266 3.31505,-6.02156 h 2.82222 l -1.76389,8.46667 -3.175,-0.70556 c -5.17066,4.49651 -7.10247,-7.73853 -0.70555,-7.76111 m 10.23055,0 -1.76389,8.46667 h -2.82222 l 1.76389,-8.46667 h 2.82222 m 8.11389,2.46944 -4.58611,-0.35277 v 0.70555 c 0.91899,0.29386 1.94098,0.50553 2.8067,0.93451 1.99531,0.98884 1.90147,3.3655 -0.0226,4.38538 -2.18228,1.15676 -4.79248,0.67698 -7.01745,-0.0282 l 0.70555,-2.11667 5.29167,0.35278 c -1.1423,-0.76377 -2.67759,-0.96555 -3.72745,-1.79529 -4.51908,-3.57081 8.03063,-7.64646 6.54967,-2.08527 m -51.85832,0.70556 h 3.52777 c -0.66957,-2.11349 -2.5153,-1.59667 -3.52777,0 m -18.311639,-1.12854 c -2.011186,0.68827 -2.441575,5.47088 0.287161,4.43654 1.873956,-0.7105 2.342444,-5.33683 -0.287161,-4.43654 m 11.961635,0.0702 c -6.512983,-1.19416 -2.087739,7.93432 -0.638175,2.4645 l 0.638175,-2.4645 m 94.544454,18.69721 c 1.10913,3.68652 8.60777,2.46944 11.64166,2.46944 -1.78435,1.8221 -8.61271,2.10891 -11.28889,2.40842 -1.12606,0.12629 -3.67982,-0.0945 -3.90842,1.51271 -0.44626,3.14078 6.62305,1.74625 8.14176,1.92757 6.9215,0.82656 19.09268,-0.52528 23.82378,-6.20677 4.67149,-5.60952 -1.82844,-11.40072 -7.59601,-8.25429 -2.69698,1.47143 -5.57353,2.30187 -8.46666,3.29283 -4.04213,1.38465 -8.23489,1.78611 -12.34722,2.85009 m -69.49722,8.21478 c 7.85213,-0.91405 17.48719,2.49837 24.69444,5.19289 9.05193,3.38384 17.90277,5.6321 26.10556,11.29559 2.01471,1.39136 5.63315,3.4417 6.2364,5.9884 0.61877,2.61162 -3.55565,7.44185 -5.09517,9.525 -0.94756,1.282 -1.92193,4.28837 -3.62585,4.6736 -1.50742,0.34114 -2.86314,-1.60902 -3.86538,-2.44192 -2.99614,-2.49097 -6.32037,-4.91526 -9.87778,-6.53839 -5.46065,-2.49096 -12.13732,-3.26072 -17.99166,-4.32329 -5.73053,-1.04034 -11.47516,-2.74214 -17.28611,-3.30447 -14.27057,-1.38112 -29.079116,2.18934 -42.333329,7.14516 -4.35998,1.63019 -8.68821,3.31647 -12.699998,5.70795 -1.413934,0.84278 -3.487561,2.95557 -5.277908,2.38089 -1.918053,-0.61595 -3.094566,-3.36479 -3.785658,-5.06342 -1.410405,-3.46639 -5.305072,-7.77663 -2.616905,-11.58028 2.020711,-2.85962 6.937021,-4.00508 9.916582,-5.65679 12.126029,-6.72183 27.72198,-9.92293 41.274996,-11.96834 5.2966,-0.79939 10.88636,-0.41099 16.22777,-1.03258 m -82.549985,8.01299 3.174999,-5.29166 c -5.131505,-1.22167 -13.199532,-0.93345 -18.344442,0.18309 -4.6972358,1.01882 -4.3631548,4.70535 -0.352778,6.55461 6.349999,2.92806 14.57466,4.67889 21.519442,3.2579 1.583267,-0.32385 6.084711,-0.90381 6.377869,-2.95769 0.19438,-1.36207 -1.908175,-1.79211 -2.850092,-2.01577 -3.357032,-0.79622 -6.20536,0.20073 -9.524998,0.26952 M 98.6267,198.8262 c 1.58573,-0.44344 2.038,-1.27882 2.46944,-2.82222 h 0.35278 c 1.11831,2.34032 4.33387,3.41312 5.29167,0.35277 -1.72085,0.40746 -2.48709,0.002 -3.52778,-1.41111 4.51696,-1.3462 2.05458,-5.64726 -1.76389,-2.11666 l 1.59103,-3.98922 3.70064,-2.00801 c -6.21983,0.004 -8.58309,6.32496 -8.11389,11.99445 m -30.338884,0.70555 -0.352778,-4.58611 c -3.345391,0.50377 -5.973938,2.84057 -4.938888,6.35 h 0.705555 c 0.670631,-1.83938 0.63747,-3.55811 2.469444,-4.58611 l 0.352778,3.52778 -1.058333,1.05833 c 2.60738,1.59526 0.808214,4.12539 -1.763889,3.88056 l -0.705555,1.76389 c 3.727096,-0.0875 6.397624,-2.92559 5.291666,-6.70278 l 3.880555,-1.05833 v 4.23333 c 1.629127,-0.14323 3.305174,-0.43709 3.880555,-2.11667 H 73.93226 c -0.0081,-2.97815 -1.908175,-9.19198 2.469444,-9.525 l 0.352777,-1.41111 c -5.516032,0.28681 -3.301646,4.16737 -5.301543,7.26934 -0.637117,0.98884 -2.170995,1.37266 -3.165122,1.90288 m 45.155544,-2.82222 c -1.79387,0.36971 -3.56764,1.12854 -4.23333,-1.05833 1.71027,-0.0363 7.11094,-2.21086 3.47557,-4.15608 -4.64644,-2.48602 -8.39117,9.29076 -1.01283,6.731 0.86148,-0.29915 1.31586,-0.77576 1.77059,-1.51659 m -15.87499,0 c -0.90982,0.32279 -2.13078,1.11901 -3.12244,0.80751 -2.811284,-0.88406 0.0914,-4.89091 2.0641,-5.04084 v 1.41111 h 1.05834 v -2.46945 c -2.78412,0.0159 -8.683626,2.8635 -5.779207,6.6033 1.484137,1.91064 5.118097,0.67557 5.779207,-1.31163 m -10.583334,-2.46944 -0.352778,-1.41111 c -2.149827,0.0519 -3.50908,0.7112 -4.233333,2.82222 l 2.469444,-1.41111 -0.352777,6.35 2.116666,-0.35278 c -0.07408,-2.17664 0.11677,-3.85974 1.626305,-5.59259 1.044223,-1.19874 2.320925,-1.15922 2.607028,-2.87408 l -3.880555,2.46945 m 27.516664,0 2.11666,-1.41111 -2.11666,5.99722 1.76389,0.70555 c 1.12606,-2.36184 2.49096,-4.50285 4.93888,-5.64444 l -1.76389,5.64444 c 1.94487,0.3556 3.59234,0.39476 4.23334,-1.76389 l -2.11667,1.05834 c 0.6216,-2.04823 3.29953,-8.49524 -1.74801,-5.75099 -0.53693,0.29175 -0.97755,0.76553 -1.42699,1.16488 0.55527,-3.37256 -3.92218,-2.5146 -3.88055,0 m -10.23056,-2.11667 c -0.44591,1.50671 -1.35361,2.03165 -2.82222,2.46944 l 2.82222,-2.46944 m 7.76111,0.35278 c -0.4071,1.47531 -1.05057,1.95827 -2.46944,2.46944 0.31362,-1.53564 0.90487,-2.22214 2.46944,-2.46944 m 11.64167,2.82222 2.82222,-1.05833 -2.46944,6.35 h 2.11666 c 1.0862,-4.16102 5.1809,-3.22792 6.70278,-5.99723 l -4.58611,1.05834 c 0.2667,-3.32529 -3.52813,-2.69029 -4.58611,-0.35278 m -40.922217,3.52778 c -0.709083,0.26811 -2.893483,1.83973 -3.555647,1.13418 -0.95638,-1.01918 4.966758,-3.8474 2.032,-5.70512 -3.038827,-1.9237 -6.410324,4.16489 -4.292247,6.56625 1.916994,2.17346 5.085997,0.26917 5.815894,-1.99531 m 4.115858,-4.35081 -0.117828,0.23495 0.117828,-0.23495 m -6.585302,0.82303 -2.116667,2.82222 c 0.159456,-1.54164 0.496006,-2.54353 2.116667,-2.82222 m 55.033681,0.58314 c -4.22381,1.22732 -5.47794,8.15481 -3.6e-4,6.59977 4.21217,-1.19557 5.48817,-8.19468 3.6e-4,-6.59977 m 1.29716,0.85831 c 1.87572,0.4512 -0.38947,5.54461 -2.55058,4.67501 -2.01295,-0.80998 0.67204,-5.12657 2.55058,-4.67501 m 6.81637,7.02522 c -0.19226,2.50401 1.61608,1.98508 3.52778,2.11666 l 0.70555,-1.41111 -2.46944,0.70556 c 0.92287,-2.22356 2.56505,-5.49628 4.5914,-6.88693 1.6824,-1.15464 3.8033,1.10561 4.58082,-1.22696 -3.5186,-0.45438 -4.5346,0.50835 -7.76111,1.20685 -2.46556,0.53411 -4.12185,-0.0974 -6.31155,1.80199 -3.43111,2.97639 0.06,4.81506 3.13655,3.69394 m -64.9111,-4.93889 -0.352778,0.35278 0.352778,-0.35278 m 67.38055,1.05833 c -1.143,1.80481 -2.80035,2.94287 -4.93889,3.175 0.508,-2.62361 2.30963,-4.22275 4.93889,-3.175 m 7.76111,8.46667 v -1.05834 c -1.73955,-0.005 -3.83576,0.0815 -3.88056,-2.11666 1.32503,0.41804 2.93652,0.84419 4.21252,0.0448 1.74484,-1.09291 1.397,-3.19511 -0.68651,-3.47768 -2.65923,-0.36125 -7.84965,3.28824 -4.73498,5.99334 1.21391,1.05445 3.59833,0.61454 5.08953,0.61454 m -0.35278,-5.29167 c -0.51541,1.59103 -1.64994,1.70356 -3.175,1.41111 l 3.175,-1.41111 m -9.17222,0 -0.70556,0.70556 0.70556,-0.70556 m -162.27776,58.56111 c -3.951605,-1.07809 -10.018323,-5.90515 -9.653763,-10.58333 0.356059,-4.56883 3.884048,-8.5344 6.524765,-11.99445 1.683526,-2.20592 3.953687,-3.41559 5.845387,-5.35657 10.0545182,-10.3177 23.0473222,-16.93616 36.794718,-20.95218 2.671938,-0.78035 7.678913,-2.84868 10.11449,-0.70203 1.572683,1.38571 2.089503,3.75567 3.183819,5.49134 1.080558,1.71344 3.566583,4.79037 2.21368,6.95713 -0.990247,1.58644 -4.345868,1.39347 -5.986991,1.87501 -5.302954,1.55505 -10.874726,3.37468 -15.874998,5.74464 -13.9851671,6.6294 -25.355546,16.14734 -33.161107,29.52044 m 191.91109,-36.33611 -0.35278,-0.35278 c 0.60254,-1.73672 2.06234,-2.71004 3.03424,-4.23474 1.79917,-2.82222 2.99791,-7.18644 6.49605,-8.55627 3.49285,-1.36772 9.28723,0.65087 12.69471,1.6517 12.66119,3.71899 25.05533,13.97035 34.21944,23.13376 3.36761,3.36726 7.37834,6.70348 9.69503,10.93611 1.22097,2.23026 4.11551,7.31555 3.58423,9.87248 -0.36054,1.73497 -2.48109,2.48356 -3.72251,3.4978 -2.75802,2.25354 -4.89409,6.2043 -9.16729,4.7311 -1.76918,-0.60995 -2.84056,-3.59587 -3.82763,-5.0486 -2.7425,-4.03613 -6.05614,-7.67998 -9.3218,-11.28889 -8.19538,-9.05687 -21.06472,-17.87843 -32.74836,-21.6408 -3.33763,-1.07492 -7.02098,-2.82857 -10.58333,-2.70087 M 51.707262,222.81509 c 0.692503,-2.0373 5.646561,-7.13035 7.346244,-3.14361 0.927452,2.17558 -5.973586,3.5172 -7.346244,3.14361 z"
       id="path2451" />
  </g>
</svg>
